# xmcd
#
# Track frame offsets: 
#        150
#        20428
#        45879
#        64388
#        99093
#        177419
#
# Disc length: 2773 seconds
#
# Revision: 0
# Processed by: cddbd v1.4PL0 Copyright (c) Steve Scherf et al.
# Submitted via: ExactAudioCopy v0.90b4
#
DISCID=410ad306
DTITLE=Van Morrison - Philipshalle Düsseldorf Dec 19, 1998 - Disk 2
DYEAR=1998
DGENRE=Blues
TTITLE0=Satisfied
TTITLE1=Georgia On My Mind
TTITLE2=Call Me Up In Dreamland
TTITLE3=Summertime In England
TTITLE4=See Me Through-The Burning Ground-Soldier Of Fortune-The Burni
TTITLE4=ng Ground
TTITLE5=Have I Told You Lately
EXTD=
EXTT0=
EXTT1=
EXTT2=
EXTT3=
EXTT4=
EXTT5=
PLAYORDER=
